<svg width="30" height="31" viewBox="0 0 30 31" fill="none" xmlns="http://www.w3.org/2000/svg">
<path opacity="0.2" d="M28 16.2541C28 18.7264 27.2669 21.1432 25.8934 23.1988C24.5198 25.2544 22.5676 26.8565 20.2835 27.8026C17.9995 28.7487 15.4861 28.9963 13.0614 28.514C10.6366 28.0316 8.40933 26.8411 6.66117 25.093C4.91301 23.3448 3.7225 21.1175 3.24019 18.6928C2.75787 16.268 3.00542 13.7547 3.95151 11.4706C4.89761 9.18653 6.49976 7.2343 8.55538 5.86078C10.611 4.48726 13.0277 3.75415 15.5 3.75415C18.8152 3.75415 21.9946 5.07111 24.3388 7.41532C26.683 9.75952 28 12.9389 28 16.2541Z" fill="white"/>
<path d="M18.625 16.2541C18.625 16.8722 18.4417 17.4764 18.0983 17.9903C17.755 18.5042 17.2669 18.9047 16.6959 19.1413C16.1249 19.3778 15.4965 19.4397 14.8903 19.3191C14.2842 19.1985 13.7273 18.9009 13.2903 18.4639C12.8533 18.0268 12.5556 17.47 12.435 16.8638C12.3145 16.2576 12.3764 15.6293 12.6129 15.0583C12.8494 14.4872 13.2499 13.9992 13.7638 13.6558C14.2777 13.3124 14.8819 13.1292 15.5 13.1292C16.3288 13.1292 17.1237 13.4584 17.7097 14.0444C18.2958 14.6305 18.625 15.4253 18.625 16.2541Z" fill="#FFF065"/>
</svg>
